<svg width="138" height="14" viewBox="0 0 138 14" fill="none" xmlns="http://www.w3.org/2000/svg">
<path d="M58.5902 9.88559V8.70344H59.3924V9.88559H58.5902ZM58.5902 5.30732V4.12512H59.3924V5.30732H58.5902Z" fill="#6F6F6F"/>
<path d="M53.0644 12.25C52.9574 12.25 52.8472 12.2393 52.7335 12.2178C52.6265 12.2035 52.5196 12.1748 52.4126 12.1318V11.3795C52.4795 11.3867 52.563 11.3974 52.6633 11.4118C52.7703 11.4332 52.8772 11.444 52.9842 11.444C53.3117 11.444 53.5624 11.3687 53.7361 11.2183C53.9099 11.075 54.0804 10.7956 54.2475 10.38L54.5884 9.52019L54.5684 10.2296L52.2924 4.12512H53.1045L54.9694 9.16555H54.7589L56.6138 4.12512H57.446L54.9895 10.6165C54.8825 10.8959 54.7455 11.161 54.5784 11.4118C54.418 11.6625 54.2141 11.8631 53.9668 12.0136C53.7194 12.1712 53.4186 12.25 53.0644 12.25Z" fill="#6F6F6F"/>
<path d="M49.0816 10.0146C48.6203 10.0146 48.2026 9.90351 47.8282 9.68144C47.4606 9.45219 47.1832 9.12975 46.996 8.71419L47.1163 8.59597V9.88566H46.3644V1.75H47.1163V5.4148L46.996 5.18911C47.2099 4.8237 47.494 4.53352 47.8483 4.31858C48.2092 4.10364 48.6203 3.99617 49.0816 3.99617C49.5896 3.99617 50.0408 4.12871 50.4351 4.39381C50.8362 4.65175 51.1504 5.0064 51.3776 5.45779C51.6116 5.90917 51.7286 6.42504 51.7286 7.00538C51.7286 7.57857 51.6116 8.09443 51.3776 8.55299C51.1504 9.00436 50.8362 9.36259 50.4351 9.62771C50.0408 9.88566 49.5896 10.0146 49.0816 10.0146ZM49.0414 9.20859C49.4024 9.20859 49.7233 9.11181 50.004 8.91835C50.2914 8.72494 50.5154 8.46342 50.6757 8.13384C50.8429 7.79709 50.9264 7.42095 50.9264 7.00538C50.9264 6.58266 50.8429 6.20651 50.6757 5.87693C50.5154 5.54734 50.2914 5.28583 50.004 5.09238C49.7233 4.89893 49.4024 4.80221 49.0414 4.80221C48.6805 4.80221 48.353 4.89893 48.0588 5.09238C47.7714 5.28583 47.5408 5.55093 47.367 5.88767C47.1999 6.21725 47.1163 6.58983 47.1163 7.00538C47.1163 7.42095 47.1999 7.79709 47.367 8.13384C47.5408 8.46342 47.7714 8.72494 48.0588 8.91835C48.353 9.11181 48.6805 9.20859 49.0414 9.20859Z" fill="#6F6F6F"/>
<path d="M40.3994 10.0146C39.8981 10.0146 39.447 9.88566 39.0459 9.62771C38.6448 9.36259 38.3273 9.00436 38.0933 8.55299C37.8661 8.09443 37.7524 7.57857 37.7524 7.00538C37.7524 6.42504 37.8661 5.90917 38.0933 5.45779C38.3273 5.0064 38.6415 4.65175 39.0358 4.39381C39.4369 4.12871 39.8914 3.99617 40.3994 3.99617C40.8607 3.99617 41.2718 4.10364 41.6327 4.31858C41.9937 4.53352 42.2778 4.8237 42.485 5.18911L42.3646 5.4148V1.75H43.1166V9.88566H42.3646V8.59597L42.485 8.71419C42.2978 9.12975 42.0171 9.45219 41.6427 9.68144C41.2751 9.90351 40.8607 10.0146 40.3994 10.0146ZM40.4395 9.20859C40.8005 9.20859 41.1247 9.11181 41.4121 8.91835C41.7062 8.72494 41.9368 8.46342 42.104 8.13384C42.2778 7.79709 42.3646 7.42095 42.3646 7.00538C42.3646 6.58983 42.2778 6.21725 42.104 5.88767C41.9368 5.55093 41.7062 5.28583 41.4121 5.09238C41.1247 4.89893 40.8005 4.80221 40.4395 4.80221C40.0853 4.80221 39.7644 4.89893 39.477 5.09238C39.1896 5.28583 38.9623 5.54734 38.7952 5.87693C38.6348 6.20651 38.5546 6.58266 38.5546 7.00538C38.5546 7.42095 38.6348 7.79709 38.7952 8.13384C38.9623 8.46342 39.1862 8.72494 39.467 8.91835C39.7544 9.11181 40.0786 9.20859 40.4395 9.20859Z" fill="#6F6F6F"/>
<path d="M34.2508 10.0145C33.7495 10.0145 33.2949 9.88556 32.8872 9.62761C32.4862 9.36257 32.1686 9.00067 31.9347 8.54217C31.7007 8.08361 31.5837 7.56417 31.5837 6.98382C31.5837 6.40346 31.6974 5.89119 31.9246 5.44697C32.1519 4.99558 32.4594 4.64093 32.8471 4.38299C33.2415 4.12506 33.6826 3.99609 34.1706 3.99609C34.5583 3.99609 34.9026 4.07491 35.2034 4.23254C35.5108 4.38299 35.7715 4.59077 35.9854 4.85587C36.1993 5.1138 36.3631 5.40756 36.4767 5.73714C36.5903 6.05955 36.6471 6.39272 36.6471 6.73663C36.6471 6.80828 36.6438 6.89067 36.6372 6.98382C36.6304 7.06979 36.6204 7.15935 36.607 7.25249H32.065V6.5002H36.1759L35.8149 6.82261C35.8751 6.42854 35.8317 6.07746 35.6846 5.76939C35.5443 5.45413 35.3404 5.20695 35.073 5.02782C34.8056 4.84154 34.5048 4.7484 34.1706 4.7484C33.8364 4.7484 33.5255 4.84154 33.2381 5.02782C32.9574 5.21411 32.7368 5.47562 32.5764 5.81238C32.4159 6.14195 32.3524 6.53602 32.3859 6.99456C32.3524 7.45311 32.4193 7.85434 32.5864 8.19825C32.7601 8.535 32.9941 8.79654 33.2882 8.98282C33.589 9.16911 33.9099 9.26221 34.2508 9.26221C34.6452 9.26221 34.9761 9.16194 35.2434 8.9613C35.5108 8.76066 35.728 8.50992 35.8952 8.209L36.5369 8.5744C36.4299 8.83232 36.2661 9.07234 36.0456 9.2945C35.825 9.5094 35.5609 9.68492 35.2535 9.82107C34.9527 9.95005 34.6184 10.0145 34.2508 10.0145Z" fill="#6F6F6F"/>
<path d="M28.4164 9.88563V4.1251H29.1684V5.07085L29.0681 4.93114C29.1951 4.65887 29.3856 4.44393 29.6396 4.28631C29.9003 4.12868 30.2145 4.04987 30.5821 4.04987H30.923V4.85591H30.4518C30.0641 4.85591 29.7532 4.98487 29.5193 5.24281C29.2853 5.50074 29.1684 5.86615 29.1684 6.33902V9.88563H28.4164Z" fill="#6F6F6F"/>
<path d="M24.6942 10.0145C24.1928 10.0145 23.7383 9.88556 23.3306 9.62761C22.9295 9.36257 22.612 9.00067 22.378 8.54217C22.1441 8.08361 22.0271 7.56417 22.0271 6.98382C22.0271 6.40346 22.1407 5.89119 22.368 5.44697C22.5953 4.99558 22.9028 4.64093 23.2905 4.38299C23.6848 4.12506 24.126 3.99609 24.614 3.99609C25.0017 3.99609 25.3459 4.07491 25.6467 4.23254C25.9542 4.38299 26.2149 4.59077 26.4288 4.85587C26.6427 5.1138 26.8064 5.40756 26.9201 5.73714C27.0337 6.05955 27.0906 6.39272 27.0906 6.73663C27.0906 6.80828 27.0872 6.89067 27.0805 6.98382C27.0738 7.06979 27.0638 7.15935 27.0505 7.25249H22.5084V6.5002H26.6193L26.2584 6.82261C26.3185 6.42854 26.2751 6.07746 26.128 5.76939C25.9876 5.45413 25.7838 5.20695 25.5164 5.02782C25.249 4.84154 24.9482 4.7484 24.614 4.7484C24.2797 4.7484 23.969 4.84154 23.6815 5.02782C23.4007 5.21411 23.1802 5.47562 23.0197 5.81238C22.8593 6.14195 22.7958 6.53602 22.8292 6.99456C22.7958 7.45311 22.8627 7.85434 23.0298 8.19825C23.2036 8.535 23.4375 8.79654 23.7317 8.98282C24.0325 9.16911 24.3533 9.26221 24.6942 9.26221C25.0886 9.26221 25.4195 9.16194 25.6868 8.9613C25.9542 8.76066 26.1715 8.50992 26.3386 8.209L26.9803 8.5744C26.8733 8.83232 26.7095 9.07234 26.489 9.2945C26.2683 9.5094 26.0043 9.68492 25.6969 9.82107C25.396 9.95005 25.0618 10.0145 24.6942 10.0145Z" fill="#6F6F6F"/>
<path d="M15.5389 9.88559L13.694 4.12512H14.5463L16.0703 9.16555H15.7695L17.2033 4.12512H17.9553L19.389 9.16555H19.0883L20.6223 4.12512H21.4645L19.6197 9.88559H18.8677L17.4739 4.95266H17.6845L16.2908 9.88559H15.5389Z" fill="#6F6F6F"/>
<path d="M10.4002 10.0145C9.89223 10.0145 9.43098 9.88556 9.01654 9.62761C8.60212 9.36257 8.27124 9.00426 8.02392 8.55291C7.78329 8.09436 7.66296 7.57491 7.66296 6.99456C7.66296 6.42138 7.78329 5.9091 8.02392 5.45771C8.26456 5.00633 8.58875 4.65167 8.99645 4.39374C9.41089 4.12864 9.87887 3.99609 10.4002 3.99609C10.9216 3.99609 11.3861 4.12506 11.7939 4.38299C12.2084 4.64093 12.5325 4.99558 12.7665 5.44697C13.0071 5.89835 13.1275 6.41422 13.1275 6.99456C13.1275 7.58208 13.0038 8.10511 12.7564 8.56366C12.5092 9.01502 12.1782 9.36966 11.7638 9.62761C11.3561 9.88556 10.9016 10.0145 10.4002 10.0145ZM10.4002 9.20849C10.7612 9.20849 11.0853 9.1118 11.3728 8.91834C11.6669 8.72487 11.8975 8.45977 12.0646 8.12302C12.2384 7.78628 12.3253 7.41013 12.3253 6.99456C12.3253 6.57901 12.2384 6.20643 12.0646 5.87685C11.8975 5.54728 11.6669 5.28576 11.3728 5.09231C11.0853 4.89886 10.7612 4.80214 10.4002 4.80214C10.0392 4.80214 9.7117 4.89886 9.41762 5.09231C9.13017 5.28576 8.89959 5.54728 8.72578 5.87685C8.55199 6.20643 8.46509 6.57901 8.46509 6.99456C8.46509 7.41013 8.55199 7.78628 8.72578 8.12302C8.89959 8.45977 9.13017 8.72487 9.41762 8.91834C9.7117 9.1118 10.0392 9.20849 10.4002 9.20849Z" fill="#6F6F6F"/>
<path d="M1.74683 9.88569V1.87903H4.31363C4.80158 1.87903 5.22938 1.98293 5.59703 2.1907C5.96467 2.39131 6.24874 2.67791 6.44928 3.05048C6.65649 3.41588 6.7601 3.84219 6.7601 4.3294C6.7601 4.81661 6.65649 5.2429 6.44928 5.60831C6.24874 5.97372 5.96467 6.26031 5.59703 6.46809C5.23607 6.6687 4.80827 6.76901 4.31363 6.76901H2.54895V9.88569H1.74683ZM2.54895 5.96297H4.35373C4.67458 5.96297 4.95533 5.89849 5.19596 5.76952C5.4366 5.63339 5.62376 5.44352 5.75745 5.19992C5.89113 4.94915 5.95797 4.65539 5.95797 4.31865C5.95797 3.9819 5.89113 3.69173 5.75745 3.44812C5.62376 3.20452 5.4366 3.01823 5.19596 2.88927C4.95533 2.75314 4.67458 2.68507 4.35373 2.68507H2.54895V5.96297Z" fill="#6F6F6F"/>
<mask id="mask0_813_9842" style="mask-type:luminance" maskUnits="userSpaceOnUse" x="66" y="1" width="71" height="12">
<path d="M136.253 1.75H66.3798V12.25H136.253V1.75Z" fill="white"/>
</mask>
<g mask="url(#mask0_813_9842)">
<path d="M73.3918 1.75C73.5258 1.75 73.5898 1.92402 73.4912 2.02035C72.6403 2.85547 71.4995 3.36664 70.2461 3.36664C68.9926 3.36664 67.8525 2.85625 67.0017 2.02035C66.9031 1.92402 66.9671 1.75 67.101 1.75H73.3918Z" fill="#055866"/>
<path d="M78.3585 1.90537V10.7072C78.3585 10.8042 78.2746 10.8797 78.1841 10.8602C75.4416 10.2729 73.3785 7.71315 73.3785 4.64535C73.3785 3.63621 73.6016 2.68223 73.9983 1.83623C74.0233 1.78341 74.0748 1.75 74.1308 1.75H78.2113C78.2922 1.75 78.3585 1.81992 78.3585 1.90537Z" fill="#10F35E"/>
<path d="M77.4768 12.2376H67.9608C67.8474 12.2376 67.7761 12.1078 67.8327 12.0038C68.8072 10.2239 70.6303 9.02606 72.7185 9.02606C74.8066 9.02606 76.6304 10.2239 77.6049 12.0038C77.6616 12.107 77.5901 12.2376 77.4768 12.2376Z" fill="#055866"/>
<path d="M69.5395 7.32395C69.5395 9.38726 68.5112 11.1974 66.9663 12.2143C66.9429 12.2298 66.9156 12.2376 66.8877 12.2376H66.5269C66.446 12.2376 66.3798 12.1677 66.3798 12.0822V2.34973C66.3798 2.2332 66.4975 2.15784 66.5954 2.21144C68.3442 3.17009 69.5395 5.0998 69.5395 7.32395Z" fill="#055866"/>
<path d="M132.976 1.75V10.5238C132.976 10.6271 133.041 10.7266 133.154 10.8004L135.214 12.1264C135.327 12.1995 135.482 12.2406 135.643 12.2406H135.647C135.982 12.2406 136.254 12.0659 136.254 11.8507V1.75H132.976Z" fill="#055866"/>
<path d="M83.7932 12.2376L87.6378 3.47773L90.866 11.2137C91.1254 11.836 91.7088 12.2368 92.3525 12.2368H95.0234L90.3035 1.75H86.9912L82.3469 12.2376H83.7932Z" fill="#055866"/>
<path d="M110.808 2.80109V10.464C110.808 11.4048 111.53 12.1669 112.422 12.1669H114.085V2.80109H118.446V1.75H106.498L107.317 2.80109H110.808Z" fill="#055866"/>
<path d="M129.696 8.9313C129.716 8.92036 129.737 8.90794 129.759 8.8963C130.522 8.45583 130.982 7.59663 130.982 6.67839V4.50706C130.982 3.74496 130.688 3.00851 130.144 2.50743C130.117 2.48258 130.089 2.4585 130.061 2.43364C129.53 1.97995 128.859 1.75 128.177 1.75H120.441V11.3869C120.441 11.8632 120.806 12.25 121.258 12.25H123.719V9.15504H126.134L129.334 12.25H130.982L127.763 9.15504H128.778C129.235 9.15504 129.412 9.08355 129.696 8.9313ZM123.704 8.12255V2.92461H128.211C128.909 2.92461 129.546 3.36431 129.813 4.04639C129.813 4.0495 129.814 4.05261 129.815 4.05493C129.831 4.09533 129.838 4.13573 129.838 4.17924V6.66751C129.838 6.81899 129.822 6.97281 129.778 7.1173C129.682 7.43348 129.502 7.65334 129.315 7.8056C129.05 8.01923 128.721 8.12255 128.387 8.12255H123.704Z" fill="#055866"/>
<path d="M103.583 1.75L104.504 2.94791H101.005C100.785 2.94791 100.567 3.00695 100.384 3.13358C100.2 3.26021 100.029 3.45676 99.9941 3.77294C99.9251 4.38432 100.631 5.03611 100.792 5.17594C100.827 5.20623 100.861 5.23731 100.895 5.26838L102.992 7.19344C102.992 7.19344 104.35 8.59955 104.388 9.46496C104.388 9.4766 104.388 9.48824 104.389 9.50066C104.449 10.9364 103.403 12.1817 102.042 12.2352C102.009 12.2368 101.975 12.2376 101.941 12.2376H97.4184C97.1922 12.2376 97.0088 12.0441 97.0088 11.8049V11.1966H100.66C100.66 11.1966 101.375 11.2222 101.538 10.5145C101.624 10.1478 101.503 9.76176 101.244 9.50145L97.6647 5.89686C97.2542 5.48357 96.9992 4.91957 96.9835 4.3214C96.973 3.91743 97.0655 3.45598 97.38 3.00229C98.2516 1.74457 99.3915 1.75855 99.3915 1.75855L103.583 1.75Z" fill="#055866"/>
</g>
</svg>
